@startuml
title Build Support (auto-gen from clang-uml)
enum "build::Machine" as C_0007192754921315111484
enum C_0007192754921315111484 {
Generic
FujiNetESP32
Atari8Bit
C64
Apple2
FujiNetPi
}
enum "build::TransportKind" as C_0002950475094340712788
enum C_0002950475094340712788 {
FujiBus
SIO
IWM
IEC
}
enum "build::ChannelKind" as C_0018157593848838900415
enum C_0018157593848838900415 {
Pty
UsbCdcDevice
TcpSocket
UdpSocket
UartGpio
SioGpio
SerialPort
}
class "build::NetworkCapabilities" as C_0008019720847980173585
class C_0008019720847980173585 {
__
+hasLocalNetwork : bool
+managesItsOwnLink : bool
+supportsAccessPointMode : bool
}
class "build::MemoryCapabilities" as C_0004735246185757737530
class C_0004735246185757737530 {
__
+hasDedicatedLargePool : bool
+largeMemoryPoolBytes : std::size_t
+persistentStorageBytes : std::size_t
}
class "build::HardwareCapabilities" as C_0013796263537013607309
class C_0013796263537013607309 {
__
+hasUsbDevice : bool
+hasUsbHost : bool
+memory : MemoryCapabilities
+network : NetworkCapabilities
}
class "build::BuildProfile" as C_0000758950242649922238
class C_0000758950242649922238 {
__
+hw : HardwareCapabilities
+machine : Machine
+name : std::string_view
+primaryChannel : ChannelKind
+primaryTransport : TransportKind
}
C_0013796263537013607309 o-- C_0008019720847980173585 : +network
C_0013796263537013607309 o-- C_0004735246185757737530 : +memory
C_0000758950242649922238 o-- C_0007192754921315111484 : +machine
C_0000758950242649922238 o-- C_0002950475094340712788 : +primaryTransport
C_0000758950242649922238 o-- C_0018157593848838900415 : +primaryChannel
C_0000758950242649922238 o-- C_0013796263537013607309 : +hw

'Generated with clang-uml, version 0.6.2
'LLVM version Ubuntu clang version 18.1.3 (1ubuntu1)
@enduml
